<mxfile host="app.diagrams.net" agent="Mozilla/5.0 (Windows NT 10.0; Win64; x64) AppleWebKit/537.36 (KHTML, like Gecko) Chrome/141.0.0.0 Safari/537.36" version="28.2.8" pages="2">
  <diagram name="Trang-1" id="-pmwld3viZyPkuEEAtAP">
    <mxGraphModel dx="786" dy="497" grid="0" gridSize="10" guides="1" tooltips="1" connect="1" arrows="1" fold="1" page="1" pageScale="1" pageWidth="3300" pageHeight="4681" math="0" shadow="0">
      <root>
        <mxCell id="0" />
        <mxCell id="1" parent="0" />
        <mxCell id="UlQumX6W2TR4WP_OLPDH-37" value="" style="rounded=0;whiteSpace=wrap;html=1;fillColor=none;labelBackgroundColor=none;" parent="1" vertex="1">
          <mxGeometry x="1320" y="1960" width="400" height="653" as="geometry" />
        </mxCell>
        <mxCell id="UlQumX6W2TR4WP_OLPDH-84" style="rounded=0;orthogonalLoop=1;jettySize=auto;html=1;exitX=0.5;exitY=0.5;exitDx=0;exitDy=0;exitPerimeter=0;entryX=0;entryY=0.5;entryDx=0;entryDy=0;" parent="1" source="UlQumX6W2TR4WP_OLPDH-38" target="UlQumX6W2TR4WP_OLPDH-78" edge="1">
          <mxGeometry relative="1" as="geometry" />
        </mxCell>
        <mxCell id="UlQumX6W2TR4WP_OLPDH-85" style="rounded=0;orthogonalLoop=1;jettySize=auto;html=1;exitX=0.5;exitY=0.5;exitDx=0;exitDy=0;exitPerimeter=0;entryX=0;entryY=0.5;entryDx=0;entryDy=0;" parent="1" source="UlQumX6W2TR4WP_OLPDH-38" target="UlQumX6W2TR4WP_OLPDH-76" edge="1">
          <mxGeometry relative="1" as="geometry" />
        </mxCell>
        <mxCell id="UlQumX6W2TR4WP_OLPDH-86" style="rounded=0;orthogonalLoop=1;jettySize=auto;html=1;exitX=0.5;exitY=0.5;exitDx=0;exitDy=0;exitPerimeter=0;entryX=0;entryY=0.5;entryDx=0;entryDy=0;" parent="1" source="UlQumX6W2TR4WP_OLPDH-38" target="UlQumX6W2TR4WP_OLPDH-82" edge="1">
          <mxGeometry relative="1" as="geometry" />
        </mxCell>
        <mxCell id="UlQumX6W2TR4WP_OLPDH-87" style="rounded=0;orthogonalLoop=1;jettySize=auto;html=1;exitX=0.5;exitY=0.5;exitDx=0;exitDy=0;exitPerimeter=0;entryX=0;entryY=0.5;entryDx=0;entryDy=0;" parent="1" source="UlQumX6W2TR4WP_OLPDH-38" target="UlQumX6W2TR4WP_OLPDH-81" edge="1">
          <mxGeometry relative="1" as="geometry" />
        </mxCell>
        <mxCell id="UlQumX6W2TR4WP_OLPDH-38" value="Admin" style="shape=umlActor;verticalLabelPosition=bottom;verticalAlign=top;html=1;outlineConnect=0;labelBackgroundColor=none;" parent="1" vertex="1">
          <mxGeometry x="1150" y="2240" width="50" height="90" as="geometry" />
        </mxCell>
        <mxCell id="UlQumX6W2TR4WP_OLPDH-43" value="" style="endArrow=open;endFill=1;endSize=12;html=1;rounded=0;exitX=0.5;exitY=0.5;exitDx=0;exitDy=0;exitPerimeter=0;entryX=0;entryY=0.5;entryDx=0;entryDy=0;labelBackgroundColor=none;fontColor=default;" parent="1" source="UlQumX6W2TR4WP_OLPDH-38" target="UlQumX6W2TR4WP_OLPDH-53" edge="1">
          <mxGeometry width="160" relative="1" as="geometry">
            <mxPoint x="1370" y="2110" as="sourcePoint" />
            <mxPoint x="1390.7399191977543" y="2074.209638692955" as="targetPoint" />
          </mxGeometry>
        </mxCell>
        <mxCell id="UlQumX6W2TR4WP_OLPDH-44" value="" style="endArrow=open;endFill=1;endSize=12;html=1;rounded=0;exitX=0.5;exitY=0.5;exitDx=0;exitDy=0;exitPerimeter=0;entryX=0;entryY=0.5;entryDx=0;entryDy=0;labelBackgroundColor=none;fontColor=default;" parent="1" source="UlQumX6W2TR4WP_OLPDH-38" target="UlQumX6W2TR4WP_OLPDH-79" edge="1">
          <mxGeometry width="160" relative="1" as="geometry">
            <mxPoint x="1240" y="2236" as="sourcePoint" />
            <mxPoint x="1370" y="2120" as="targetPoint" />
          </mxGeometry>
        </mxCell>
        <mxCell id="UlQumX6W2TR4WP_OLPDH-45" value="" style="endArrow=open;endFill=1;endSize=12;html=1;rounded=0;entryX=0;entryY=0.5;entryDx=0;entryDy=0;exitX=0.5;exitY=0.5;exitDx=0;exitDy=0;exitPerimeter=0;labelBackgroundColor=none;fontColor=default;" parent="1" source="UlQumX6W2TR4WP_OLPDH-38" target="UlQumX6W2TR4WP_OLPDH-77" edge="1">
          <mxGeometry width="160" relative="1" as="geometry">
            <mxPoint x="1260" y="2256" as="sourcePoint" />
            <mxPoint x="1390.7399191977543" y="2225.790361307045" as="targetPoint" />
          </mxGeometry>
        </mxCell>
        <mxCell id="UlQumX6W2TR4WP_OLPDH-46" value="" style="endArrow=open;endFill=1;endSize=12;html=1;rounded=0;entryX=0;entryY=0.5;entryDx=0;entryDy=0;exitX=0.5;exitY=0.5;exitDx=0;exitDy=0;exitPerimeter=0;labelBackgroundColor=none;fontColor=default;" parent="1" source="UlQumX6W2TR4WP_OLPDH-38" target="UlQumX6W2TR4WP_OLPDH-75" edge="1">
          <mxGeometry width="160" relative="1" as="geometry">
            <mxPoint x="1260" y="2256" as="sourcePoint" />
            <mxPoint x="1370" y="2180" as="targetPoint" />
          </mxGeometry>
        </mxCell>
        <mxCell id="UlQumX6W2TR4WP_OLPDH-47" style="edgeStyle=orthogonalEdgeStyle;rounded=0;orthogonalLoop=1;jettySize=auto;html=1;exitX=0.5;exitY=1;exitDx=0;exitDy=0;labelBackgroundColor=none;fontColor=default;" parent="1" edge="1">
          <mxGeometry relative="1" as="geometry">
            <mxPoint x="1440" y="2080" as="sourcePoint" />
            <mxPoint x="1440" y="2080" as="targetPoint" />
          </mxGeometry>
        </mxCell>
        <mxCell id="UlQumX6W2TR4WP_OLPDH-48" style="edgeStyle=orthogonalEdgeStyle;rounded=0;orthogonalLoop=1;jettySize=auto;html=1;exitX=0.5;exitY=1;exitDx=0;exitDy=0;labelBackgroundColor=none;fontColor=default;" parent="1" edge="1">
          <mxGeometry relative="1" as="geometry">
            <mxPoint x="1440" y="2200" as="sourcePoint" />
            <mxPoint x="1440" y="2200" as="targetPoint" />
          </mxGeometry>
        </mxCell>
        <mxCell id="UlQumX6W2TR4WP_OLPDH-49" value="&lt;font style=&quot;vertical-align: inherit;&quot; dir=&quot;auto&quot;&gt;&lt;font style=&quot;vertical-align: inherit;&quot; dir=&quot;auto&quot;&gt;&lt;font style=&quot;vertical-align: inherit;&quot; dir=&quot;auto&quot;&gt;&lt;font style=&quot;vertical-align: inherit;&quot; dir=&quot;auto&quot;&gt;Sơ đồ Use Case hệ thống Quản lý thư viện&lt;/font&gt;&lt;/font&gt;&lt;/font&gt;&lt;/font&gt;" style="text;whiteSpace=wrap;html=1;fontSize=16;align=center;fontStyle=1;labelBackgroundColor=none;" parent="1" vertex="1">
          <mxGeometry x="1335" y="1985" width="370" height="40" as="geometry" />
        </mxCell>
        <mxCell id="UlQumX6W2TR4WP_OLPDH-89" style="rounded=0;orthogonalLoop=1;jettySize=auto;html=1;exitX=0.5;exitY=0.5;exitDx=0;exitDy=0;exitPerimeter=0;entryX=1;entryY=0.5;entryDx=0;entryDy=0;" parent="1" source="UlQumX6W2TR4WP_OLPDH-50" target="UlQumX6W2TR4WP_OLPDH-53" edge="1">
          <mxGeometry relative="1" as="geometry" />
        </mxCell>
        <mxCell id="UlQumX6W2TR4WP_OLPDH-50" value="Thủ thư" style="shape=umlActor;verticalLabelPosition=bottom;verticalAlign=top;html=1;outlineConnect=0;labelBackgroundColor=none;" parent="1" vertex="1">
          <mxGeometry x="1840" y="2230" width="50" height="90" as="geometry" />
        </mxCell>
        <mxCell id="UlQumX6W2TR4WP_OLPDH-53" value="&lt;table&gt;&lt;tbody&gt;&lt;tr&gt;&lt;td data-col-size=&quot;sm&quot; data-end=&quot;1338&quot; data-start=&quot;1326&quot;&gt;&lt;strong data-end=&quot;1337&quot; data-start=&quot;1328&quot;&gt;&lt;/strong&gt;&lt;/td&gt;&lt;/tr&gt;&lt;/tbody&gt;&lt;/table&gt;Đăng nhập&lt;table&gt;&lt;tbody&gt;&lt;tr&gt;&lt;td data-col-size=&quot;sm&quot; data-end=&quot;1362&quot; data-start=&quot;1338&quot;&gt;&lt;table&gt;&lt;tbody&gt;&lt;tr&gt;&lt;td data-col-size=&quot;md&quot; data-end=&quot;1443&quot; data-start=&quot;1390&quot;&gt;&lt;/td&gt;&lt;/tr&gt;&lt;/tbody&gt;&lt;/table&gt;&lt;/td&gt;&lt;/tr&gt;&lt;/tbody&gt;&lt;/table&gt;" style="ellipse;whiteSpace=wrap;html=1;fontStyle=0;labelBackgroundColor=none;fillColor=none;" parent="1" vertex="1">
          <mxGeometry x="1420" y="2040" width="190" height="50" as="geometry" />
        </mxCell>
        <mxCell id="UlQumX6W2TR4WP_OLPDH-55" value="" style="endArrow=open;endFill=1;endSize=12;html=1;rounded=0;exitX=0.5;exitY=0.5;exitDx=0;exitDy=0;exitPerimeter=0;entryX=1;entryY=0.5;entryDx=0;entryDy=0;labelBackgroundColor=none;fontColor=default;" parent="1" source="UlQumX6W2TR4WP_OLPDH-50" target="UlQumX6W2TR4WP_OLPDH-78" edge="1">
          <mxGeometry width="160" relative="1" as="geometry">
            <mxPoint x="2010" y="2110" as="sourcePoint" />
            <mxPoint x="2170" y="2110" as="targetPoint" />
          </mxGeometry>
        </mxCell>
        <mxCell id="UlQumX6W2TR4WP_OLPDH-56" value="" style="endArrow=open;endFill=1;endSize=12;html=1;rounded=0;exitX=0.5;exitY=0.5;exitDx=0;exitDy=0;exitPerimeter=0;entryX=1;entryY=0.5;entryDx=0;entryDy=0;labelBackgroundColor=none;fontColor=default;" parent="1" source="UlQumX6W2TR4WP_OLPDH-50" target="UlQumX6W2TR4WP_OLPDH-76" edge="1">
          <mxGeometry width="160" relative="1" as="geometry">
            <mxPoint x="1880" y="2236" as="sourcePoint" />
            <mxPoint x="1610" y="2140" as="targetPoint" />
          </mxGeometry>
        </mxCell>
        <mxCell id="UlQumX6W2TR4WP_OLPDH-57" value="" style="endArrow=open;endFill=1;endSize=12;html=1;rounded=0;entryX=1;entryY=0.5;entryDx=0;entryDy=0;exitX=0.5;exitY=0.5;exitDx=0;exitDy=0;exitPerimeter=0;labelBackgroundColor=none;fontColor=default;" parent="1" source="UlQumX6W2TR4WP_OLPDH-50" target="UlQumX6W2TR4WP_OLPDH-81" edge="1">
          <mxGeometry width="160" relative="1" as="geometry">
            <mxPoint x="1900" y="2256" as="sourcePoint" />
            <mxPoint x="1610" y="2310" as="targetPoint" />
          </mxGeometry>
        </mxCell>
        <mxCell id="UlQumX6W2TR4WP_OLPDH-58" value="" style="endArrow=open;endFill=1;endSize=12;html=1;rounded=0;entryX=1;entryY=0.5;entryDx=0;entryDy=0;exitX=0.5;exitY=0.5;exitDx=0;exitDy=0;exitPerimeter=0;labelBackgroundColor=none;fontColor=default;" parent="1" source="UlQumX6W2TR4WP_OLPDH-50" target="UlQumX6W2TR4WP_OLPDH-82" edge="1">
          <mxGeometry width="160" relative="1" as="geometry">
            <mxPoint x="1900" y="2256" as="sourcePoint" />
            <mxPoint x="1610" y="2220" as="targetPoint" />
          </mxGeometry>
        </mxCell>
        <mxCell id="UlQumX6W2TR4WP_OLPDH-75" value="&lt;table&gt;&lt;tbody&gt;&lt;tr&gt;&lt;td data-col-size=&quot;sm&quot; data-end=&quot;1338&quot; data-start=&quot;1326&quot;&gt;&lt;strong data-end=&quot;1337&quot; data-start=&quot;1328&quot;&gt;&lt;/strong&gt;&lt;/td&gt;&lt;/tr&gt;&lt;/tbody&gt;&lt;/table&gt;Quản lý sách&lt;table&gt;&lt;tbody&gt;&lt;tr&gt;&lt;td data-col-size=&quot;sm&quot; data-end=&quot;1362&quot; data-start=&quot;1338&quot;&gt;&lt;table&gt;&lt;tbody&gt;&lt;tr&gt;&lt;td data-col-size=&quot;md&quot; data-end=&quot;1443&quot; data-start=&quot;1390&quot;&gt;&lt;/td&gt;&lt;/tr&gt;&lt;/tbody&gt;&lt;/table&gt;&lt;/td&gt;&lt;/tr&gt;&lt;/tbody&gt;&lt;/table&gt;" style="ellipse;whiteSpace=wrap;html=1;fontStyle=0;labelBackgroundColor=none;fillColor=none;" parent="1" vertex="1">
          <mxGeometry x="1425" y="2180" width="190" height="50" as="geometry" />
        </mxCell>
        <mxCell id="UlQumX6W2TR4WP_OLPDH-76" value="&lt;table&gt;&lt;tbody&gt;&lt;tr&gt;&lt;td data-col-size=&quot;sm&quot; data-end=&quot;1338&quot; data-start=&quot;1326&quot;&gt;&lt;strong data-end=&quot;1337&quot; data-start=&quot;1328&quot;&gt;&lt;/strong&gt;&lt;/td&gt;&lt;/tr&gt;&lt;/tbody&gt;&lt;/table&gt;Quản lý phiếu mượn&lt;table&gt;&lt;tbody&gt;&lt;tr&gt;&lt;td data-col-size=&quot;sm&quot; data-end=&quot;1362&quot; data-start=&quot;1338&quot;&gt;&lt;table&gt;&lt;tbody&gt;&lt;tr&gt;&lt;td data-col-size=&quot;md&quot; data-end=&quot;1443&quot; data-start=&quot;1390&quot;&gt;&lt;/td&gt;&lt;/tr&gt;&lt;/tbody&gt;&lt;/table&gt;&lt;/td&gt;&lt;/tr&gt;&lt;/tbody&gt;&lt;/table&gt;" style="ellipse;whiteSpace=wrap;html=1;fontStyle=0;labelBackgroundColor=none;fillColor=none;" parent="1" vertex="1">
          <mxGeometry x="1420" y="2390" width="190" height="50" as="geometry" />
        </mxCell>
        <mxCell id="UlQumX6W2TR4WP_OLPDH-77" value="&lt;table&gt;&lt;tbody&gt;&lt;tr&gt;&lt;td data-col-size=&quot;sm&quot; data-end=&quot;1338&quot; data-start=&quot;1326&quot;&gt;&lt;strong data-end=&quot;1337&quot; data-start=&quot;1328&quot;&gt;&lt;/strong&gt;&lt;/td&gt;&lt;/tr&gt;&lt;/tbody&gt;&lt;/table&gt;Quản lý loại sách&lt;table&gt;&lt;tbody&gt;&lt;tr&gt;&lt;td data-col-size=&quot;sm&quot; data-end=&quot;1362&quot; data-start=&quot;1338&quot;&gt;&lt;table&gt;&lt;tbody&gt;&lt;tr&gt;&lt;td data-col-size=&quot;md&quot; data-end=&quot;1443&quot; data-start=&quot;1390&quot;&gt;&lt;/td&gt;&lt;/tr&gt;&lt;/tbody&gt;&lt;/table&gt;&lt;/td&gt;&lt;/tr&gt;&lt;/tbody&gt;&lt;/table&gt;" style="ellipse;whiteSpace=wrap;html=1;fontStyle=0;labelBackgroundColor=none;fillColor=none;" parent="1" vertex="1">
          <mxGeometry x="1425" y="2250" width="190" height="50" as="geometry" />
        </mxCell>
        <mxCell id="UlQumX6W2TR4WP_OLPDH-78" value="&lt;table&gt;&lt;tbody&gt;&lt;tr&gt;&lt;td data-col-size=&quot;sm&quot; data-end=&quot;1338&quot; data-start=&quot;1326&quot;&gt;&lt;strong data-end=&quot;1337&quot; data-start=&quot;1328&quot;&gt;&lt;/strong&gt;&lt;/td&gt;&lt;/tr&gt;&lt;/tbody&gt;&lt;/table&gt;Quản lý độc giả&lt;table&gt;&lt;tbody&gt;&lt;tr&gt;&lt;td data-col-size=&quot;sm&quot; data-end=&quot;1362&quot; data-start=&quot;1338&quot;&gt;&lt;table&gt;&lt;tbody&gt;&lt;tr&gt;&lt;td data-col-size=&quot;md&quot; data-end=&quot;1443&quot; data-start=&quot;1390&quot;&gt;&lt;/td&gt;&lt;/tr&gt;&lt;/tbody&gt;&lt;/table&gt;&lt;/td&gt;&lt;/tr&gt;&lt;/tbody&gt;&lt;/table&gt;" style="ellipse;whiteSpace=wrap;html=1;fontStyle=0;labelBackgroundColor=none;fillColor=none;" parent="1" vertex="1">
          <mxGeometry x="1420" y="2320" width="190" height="50" as="geometry" />
        </mxCell>
        <mxCell id="UlQumX6W2TR4WP_OLPDH-79" value="&lt;table&gt;&lt;tbody&gt;&lt;tr&gt;&lt;td data-col-size=&quot;sm&quot; data-end=&quot;1338&quot; data-start=&quot;1326&quot;&gt;&lt;strong data-end=&quot;1337&quot; data-start=&quot;1328&quot;&gt;&lt;/strong&gt;&lt;/td&gt;&lt;/tr&gt;&lt;/tbody&gt;&lt;/table&gt;&lt;table&gt;&lt;tbody&gt;&lt;tr&gt;&lt;td data-col-size=&quot;sm&quot; data-end=&quot;1362&quot; data-start=&quot;1338&quot;&gt;&lt;table&gt;&lt;tbody&gt;&lt;tr&gt;&lt;td data-col-size=&quot;sm&quot; data-end=&quot;1390&quot; data-start=&quot;1365&quot;&gt;&lt;b&gt;Quán lý nhân viên&lt;/b&gt;&lt;/td&gt;&lt;/tr&gt;&lt;/tbody&gt;&lt;/table&gt;&lt;table&gt;&lt;tbody&gt;&lt;tr&gt;&lt;td data-col-size=&quot;md&quot; data-end=&quot;1443&quot; data-start=&quot;1390&quot;&gt;&lt;/td&gt;&lt;/tr&gt;&lt;/tbody&gt;&lt;/table&gt;&lt;/td&gt;&lt;/tr&gt;&lt;/tbody&gt;&lt;/table&gt;" style="ellipse;whiteSpace=wrap;html=1;fontStyle=0;labelBackgroundColor=none;fillColor=none;" parent="1" vertex="1">
          <mxGeometry x="1420" y="2110" width="190" height="50" as="geometry" />
        </mxCell>
        <mxCell id="UlQumX6W2TR4WP_OLPDH-81" value="Quản lý thống kê" style="ellipse;whiteSpace=wrap;html=1;fontStyle=0;labelBackgroundColor=none;fillColor=none;" parent="1" vertex="1">
          <mxGeometry x="1420" y="2530" width="190" height="50" as="geometry" />
        </mxCell>
        <mxCell id="UlQumX6W2TR4WP_OLPDH-82" value="&lt;table&gt;&lt;tbody&gt;&lt;tr&gt;&lt;td data-col-size=&quot;sm&quot; data-end=&quot;1338&quot; data-start=&quot;1326&quot;&gt;&lt;strong data-end=&quot;1337&quot; data-start=&quot;1328&quot;&gt;&lt;/strong&gt;&lt;/td&gt;&lt;/tr&gt;&lt;/tbody&gt;&lt;/table&gt;Quản lý phiếu trả&lt;table&gt;&lt;tbody&gt;&lt;tr&gt;&lt;td data-col-size=&quot;sm&quot; data-end=&quot;1362&quot; data-start=&quot;1338&quot;&gt;&lt;table&gt;&lt;tbody&gt;&lt;tr&gt;&lt;td data-col-size=&quot;md&quot; data-end=&quot;1443&quot; data-start=&quot;1390&quot;&gt;&lt;/td&gt;&lt;/tr&gt;&lt;/tbody&gt;&lt;/table&gt;&lt;/td&gt;&lt;/tr&gt;&lt;/tbody&gt;&lt;/table&gt;" style="ellipse;whiteSpace=wrap;html=1;fontStyle=0;labelBackgroundColor=none;fillColor=none;" parent="1" vertex="1">
          <mxGeometry x="1420" y="2460" width="190" height="50" as="geometry" />
        </mxCell>
      </root>
    </mxGraphModel>
  </diagram>
  <diagram id="iBqAXpp84blesMP5SVQI" name="Trang-2">
    <mxGraphModel dx="786" dy="497" grid="0" gridSize="10" guides="1" tooltips="1" connect="1" arrows="1" fold="1" page="1" pageScale="1" pageWidth="3300" pageHeight="4681" math="0" shadow="0">
      <root>
        <mxCell id="0" />
        <mxCell id="1" parent="0" />
        <mxCell id="ULrQTAzVHeGhQ9YVJWjm-5" style="edgeStyle=orthogonalEdgeStyle;rounded=0;orthogonalLoop=1;jettySize=auto;html=1;exitX=0.5;exitY=1;exitDx=0;exitDy=0;entryX=0.5;entryY=0;entryDx=0;entryDy=0;" edge="1" parent="1" source="ULrQTAzVHeGhQ9YVJWjm-1" target="ULrQTAzVHeGhQ9YVJWjm-2">
          <mxGeometry relative="1" as="geometry" />
        </mxCell>
        <mxCell id="ULrQTAzVHeGhQ9YVJWjm-1" value="&lt;div&gt;Presentation Layer&amp;nbsp;&amp;nbsp;&lt;/div&gt;&lt;div&gt;&lt;span style=&quot;background-color: transparent; color: light-dark(rgb(0, 0, 0), rgb(255, 255, 255));&quot;&gt;(GUI – WinForms)&amp;nbsp;&lt;/span&gt;&lt;/div&gt;" style="rounded=1;whiteSpace=wrap;html=1;" vertex="1" parent="1">
          <mxGeometry x="310" y="950" width="180" height="50" as="geometry" />
        </mxCell>
        <mxCell id="ULrQTAzVHeGhQ9YVJWjm-6" style="edgeStyle=orthogonalEdgeStyle;rounded=0;orthogonalLoop=1;jettySize=auto;html=1;exitX=0.5;exitY=1;exitDx=0;exitDy=0;entryX=0.5;entryY=0;entryDx=0;entryDy=0;" edge="1" parent="1" source="ULrQTAzVHeGhQ9YVJWjm-2" target="ULrQTAzVHeGhQ9YVJWjm-4">
          <mxGeometry relative="1" as="geometry" />
        </mxCell>
        <mxCell id="ULrQTAzVHeGhQ9YVJWjm-2" value="&lt;div&gt;Business Logic Layer&amp;nbsp;&lt;/div&gt;&lt;div&gt;&lt;span style=&quot;background-color: transparent; color: light-dark(rgb(0, 0, 0), rgb(255, 255, 255));&quot;&gt;&amp;nbsp;(BLL / BUS)&amp;nbsp;&amp;nbsp;&lt;/span&gt;&lt;/div&gt;" style="rounded=1;whiteSpace=wrap;html=1;" vertex="1" parent="1">
          <mxGeometry x="310" y="1040" width="180" height="50" as="geometry" />
        </mxCell>
        <mxCell id="ULrQTAzVHeGhQ9YVJWjm-3" value="SQL Server&amp;nbsp;" style="rounded=1;whiteSpace=wrap;html=1;" vertex="1" parent="1">
          <mxGeometry x="310" y="1220" width="180" height="50" as="geometry" />
        </mxCell>
        <mxCell id="ULrQTAzVHeGhQ9YVJWjm-7" style="edgeStyle=orthogonalEdgeStyle;rounded=0;orthogonalLoop=1;jettySize=auto;html=1;exitX=0.5;exitY=1;exitDx=0;exitDy=0;entryX=0.5;entryY=0;entryDx=0;entryDy=0;" edge="1" parent="1" source="ULrQTAzVHeGhQ9YVJWjm-4" target="ULrQTAzVHeGhQ9YVJWjm-3">
          <mxGeometry relative="1" as="geometry" />
        </mxCell>
        <mxCell id="ULrQTAzVHeGhQ9YVJWjm-4" value="&lt;div&gt;&amp;nbsp;Data Access Layer&amp;nbsp;&amp;nbsp;&lt;/div&gt;&lt;div&gt;&lt;span style=&quot;background-color: transparent; color: light-dark(rgb(0, 0, 0), rgb(255, 255, 255));&quot;&gt;(DAL / Repository)&lt;/span&gt;&lt;/div&gt;" style="rounded=1;whiteSpace=wrap;html=1;" vertex="1" parent="1">
          <mxGeometry x="310" y="1130" width="180" height="50" as="geometry" />
        </mxCell>
      </root>
    </mxGraphModel>
  </diagram>
</mxfile>
